<mxfile host="Electron" modified="2024-08-03T06:34:37.873Z" agent="Mozilla/5.0 (Windows NT 10.0; Win64; x64) AppleWebKit/537.36 (KHTML, like Gecko) draw.io/24.5.3 Chrome/124.0.6367.207 Electron/30.0.6 Safari/537.36" etag="GPZ-EJ72ALeorPNoPLEG" version="24.5.3" type="device">
  <diagram name="Page-1" id="WOSOVz6RM2XV0E5wkr61">
    <mxGraphModel dx="2261" dy="854" grid="1" gridSize="10" guides="1" tooltips="1" connect="1" arrows="1" fold="1" page="1" pageScale="1" pageWidth="827" pageHeight="1169" math="0" shadow="0">
      <root>
        <mxCell id="0" />
        <mxCell id="1" parent="0" />
        <mxCell id="LtcpgjHA8AtpNoiND4aA-1" value="Utilisateur" style="whiteSpace=wrap;strokeWidth=2;" vertex="1" parent="1">
          <mxGeometry x="182" y="40" width="91" height="34" as="geometry" />
        </mxCell>
        <mxCell id="LtcpgjHA8AtpNoiND4aA-2" value="LoginComponent" style="whiteSpace=wrap;strokeWidth=2;" vertex="1" parent="1">
          <mxGeometry y="143" width="135" height="34" as="geometry" />
        </mxCell>
        <mxCell id="LtcpgjHA8AtpNoiND4aA-3" value="AuthService" style="whiteSpace=wrap;strokeWidth=2;" vertex="1" parent="1">
          <mxGeometry x="17" y="246" width="101" height="34" as="geometry" />
        </mxCell>
        <mxCell id="LtcpgjHA8AtpNoiND4aA-4" value="Backend" style="whiteSpace=wrap;strokeWidth=2;" vertex="1" parent="1">
          <mxGeometry x="-58" y="367" width="75" height="34" as="geometry" />
        </mxCell>
        <mxCell id="LtcpgjHA8AtpNoiND4aA-5" value="Local Storage" style="shape=cylinder3;boundedLbl=1;backgroundOutline=1;size=10;strokeWidth=2;whiteSpace=wrap;" vertex="1" parent="1">
          <mxGeometry x="165" y="349" width="112" height="69" as="geometry" />
        </mxCell>
        <mxCell id="LtcpgjHA8AtpNoiND4aA-6" value="AuthService" style="whiteSpace=wrap;strokeWidth=2;" vertex="1" parent="1">
          <mxGeometry x="170" y="487" width="101" height="34" as="geometry" />
        </mxCell>
        <mxCell id="LtcpgjHA8AtpNoiND4aA-7" value="Router" style="whiteSpace=wrap;strokeWidth=2;" vertex="1" parent="1">
          <mxGeometry x="273" y="590" width="63" height="34" as="geometry" />
        </mxCell>
        <mxCell id="LtcpgjHA8AtpNoiND4aA-8" value="Route protégée" style="whiteSpace=wrap;strokeWidth=2;" vertex="1" parent="1">
          <mxGeometry x="325" y="487" width="125" height="34" as="geometry" />
        </mxCell>
        <mxCell id="LtcpgjHA8AtpNoiND4aA-9" value="Saisit ses identifiants" style="curved=1;startArrow=none;endArrow=block;exitX=0;exitY=0.93;entryX=0.5;entryY=0;rounded=0;" edge="1" parent="1" source="LtcpgjHA8AtpNoiND4aA-1" target="LtcpgjHA8AtpNoiND4aA-2">
          <mxGeometry relative="1" as="geometry">
            <Array as="points">
              <mxPoint x="68" y="109" />
            </Array>
          </mxGeometry>
        </mxCell>
        <mxCell id="LtcpgjHA8AtpNoiND4aA-10" value="Envoie la demande de connexion" style="curved=1;startArrow=none;endArrow=block;exitX=0.5;exitY=1;entryX=0.5;entryY=0;rounded=0;" edge="1" parent="1" source="LtcpgjHA8AtpNoiND4aA-2" target="LtcpgjHA8AtpNoiND4aA-3">
          <mxGeometry relative="1" as="geometry">
            <Array as="points" />
          </mxGeometry>
        </mxCell>
        <mxCell id="LtcpgjHA8AtpNoiND4aA-11" value="Valide les identifiants" style="curved=1;startArrow=none;endArrow=block;exitX=0;exitY=0.93;entryX=0.2;entryY=-0.01;rounded=0;" edge="1" parent="1" source="LtcpgjHA8AtpNoiND4aA-3" target="LtcpgjHA8AtpNoiND4aA-4">
          <mxGeometry relative="1" as="geometry">
            <Array as="points">
              <mxPoint x="-110" y="315" />
            </Array>
          </mxGeometry>
        </mxCell>
        <mxCell id="LtcpgjHA8AtpNoiND4aA-12" value="Renvoie un jeton JWT" style="curved=1;startArrow=none;endArrow=block;exitX=0.78;exitY=-0.01;entryX=0.5;entryY=1;rounded=0;" edge="1" parent="1" source="LtcpgjHA8AtpNoiND4aA-4" target="LtcpgjHA8AtpNoiND4aA-3">
          <mxGeometry relative="1" as="geometry">
            <Array as="points">
              <mxPoint x="68" y="315" />
            </Array>
          </mxGeometry>
        </mxCell>
        <mxCell id="LtcpgjHA8AtpNoiND4aA-13" value="Stocke le jeton" style="curved=1;startArrow=none;endArrow=block;exitX=1;exitY=1;entryX=0.5;entryY=0;rounded=0;" edge="1" parent="1" source="LtcpgjHA8AtpNoiND4aA-3" target="LtcpgjHA8AtpNoiND4aA-5">
          <mxGeometry relative="1" as="geometry">
            <Array as="points">
              <mxPoint x="221" y="315" />
            </Array>
          </mxGeometry>
        </mxCell>
        <mxCell id="LtcpgjHA8AtpNoiND4aA-14" value="Change l&#39;état de l&#39;utilisateur" style="curved=1;startArrow=none;endArrow=block;exitX=0.5;exitY=1.01;entryX=0.5;entryY=0.01;rounded=0;" edge="1" parent="1" source="LtcpgjHA8AtpNoiND4aA-5" target="LtcpgjHA8AtpNoiND4aA-6">
          <mxGeometry relative="1" as="geometry">
            <Array as="points" />
          </mxGeometry>
        </mxCell>
        <mxCell id="LtcpgjHA8AtpNoiND4aA-15" value="Redirige vers la page d&#39;accueil" style="curved=1;startArrow=none;endArrow=block;exitX=0.5;exitY=1.01;entryX=0.06;entryY=0.01;rounded=0;" edge="1" parent="1" source="LtcpgjHA8AtpNoiND4aA-6" target="LtcpgjHA8AtpNoiND4aA-7">
          <mxGeometry relative="1" as="geometry">
            <Array as="points">
              <mxPoint x="221" y="556" />
            </Array>
          </mxGeometry>
        </mxCell>
        <mxCell id="LtcpgjHA8AtpNoiND4aA-16" value="AuthGuard" style="curved=1;dashed=1;dashPattern=2 3;startArrow=none;endArrow=block;exitX=0.5;exitY=1.01;entryX=0.93;entryY=0.01;rounded=0;" edge="1" parent="1" source="LtcpgjHA8AtpNoiND4aA-8" target="LtcpgjHA8AtpNoiND4aA-7">
          <mxGeometry relative="1" as="geometry">
            <Array as="points">
              <mxPoint x="388" y="556" />
            </Array>
          </mxGeometry>
        </mxCell>
        <mxCell id="LtcpgjHA8AtpNoiND4aA-17" value="Essaye d&#39;accéder" style="curved=1;dashed=1;dashPattern=2 3;startArrow=none;endArrow=block;exitX=1;exitY=0.93;entryX=0.5;entryY=0.01;rounded=0;" edge="1" parent="1" source="LtcpgjHA8AtpNoiND4aA-1" target="LtcpgjHA8AtpNoiND4aA-8">
          <mxGeometry relative="1" as="geometry">
            <Array as="points">
              <mxPoint x="388" y="109" />
            </Array>
          </mxGeometry>
        </mxCell>
      </root>
    </mxGraphModel>
  </diagram>
</mxfile>
